<svg width="40" height="40" viewBox="0 0 40 40" fill="none" xmlns="http://www.w3.org/2000/svg">
<path d="M5.79102 4.16602C5.79102 3.26855 5.06348 2.54102 4.16602 2.54102C3.26855 2.54102 2.54102 3.26855 2.54102 4.16602V35.832C2.54102 36.7295 3.26855 37.457 4.16602 37.457H35.832C36.7295 37.457 37.457 36.7295 37.457 35.832C37.457 34.9346 36.7295 34.207 35.832 34.207H5.79102V4.16602Z" fill="#003865"/>
<path fill-rule="evenodd" clip-rule="evenodd" d="M35.791 9.16602C35.791 8.50607 35.3919 7.91166 34.781 7.66189C34.1702 7.41213 33.4689 7.55662 33.0065 8.02752L25.1727 16.0058L20.832 11.5342C20.5218 11.2146 20.094 11.0363 19.6486 11.0411C19.2032 11.0459 18.7793 11.2333 18.476 11.5594L9.64203 21.0594C9.36244 21.3601 9.20703 21.7555 9.20703 22.166V27.5C9.20703 28.3975 9.93457 29.125 10.832 29.125H34.166C35.0635 29.125 35.791 28.3975 35.791 27.5V9.16602ZM26.3255 19.4705L32.541 13.1404V25.875H12.457V22.8048L19.6913 15.0251L24 19.4639C24.3049 19.778 24.7236 19.9558 25.1614 19.957C25.5991 19.9583 26.0188 19.7829 26.3255 19.4705Z" fill="#003865"/>
</svg>
